<svg width="24.159424" height="24.500000" viewBox="0 0 24.1594 24.5" fill="none" xmlns="http://www.w3.org/2000/svg" xmlns:xlink="http://www.w3.org/1999/xlink">
	<desc>
			Created with Pixso.
	</desc>
	<defs/>
	<path id="Vector" d="M18.9 24.5L5.25 24.5C2.36255 24.5 0 22.1375 0 19.25L0 19.075L0.525024 5.07501C0.612549 2.1875 2.97498 0 5.77502 0L18.375 0C21.175 0 23.5375 2.1875 23.625 5.07501L24.15 19.075C24.2375 20.475 23.7125 21.7875 22.75 22.8375C21.7875 23.8875 20.475 24.5 19.075 24.5C19.075 24.5 18.9875 24.5 18.9 24.5ZM5.77502 1.75C3.84998 1.75 2.36255 3.23749 2.27502 5.07501L1.75 19.25C1.75 21.175 3.32495 22.75 5.25 22.75L19.075 22.75C20.0375 22.75 20.9125 22.3125 21.525 21.6125C22.1375 20.9125 22.4875 20.0375 22.4875 19.075L21.9625 5.07501C21.875 3.15002 20.3875 1.75 18.4625 1.75L5.77502 1.75Z" fill="#333845" fill-opacity="1.000000" fill-rule="nonzero"/>
	<path id="Vector" d="M12.075 10.5C8.66248 10.5 5.94995 7.78748 5.94995 4.375C5.94995 3.84998 6.29993 3.5 6.82495 3.5C7.34998 3.5 7.69995 3.84998 7.69995 4.375C7.69995 6.82501 9.625 8.75 12.075 8.75C14.5249 8.75 16.45 6.82501 16.45 4.375C16.45 3.84998 16.7999 3.5 17.325 3.5C17.85 3.5 18.2 3.84998 18.2 4.375C18.2 7.78748 15.4874 10.5 12.075 10.5Z" fill="#333845" fill-opacity="1.000000" fill-rule="nonzero"/>
</svg>
