<svg width="25.083313" height="25.083313" viewBox="0 0 25.0833 25.0833" fill="none" xmlns="http://www.w3.org/2000/svg" xmlns:xlink="http://www.w3.org/1999/xlink">
	<desc>
			Created with Pixso.
	</desc>
	<defs/>
	<path id="Vector" d="M19.0984 9.76514L12.9734 9.76514C12.4951 9.76514 12.0984 9.36847 12.0984 8.89014C12.0984 8.4118 12.4951 8.01514 12.9734 8.01514L19.0984 8.01514C19.5767 8.01514 19.9734 8.4118 19.9734 8.89014C19.9734 9.36847 19.5884 9.76514 19.0984 9.76514Z" fill="#333845" fill-opacity="1.000000" fill-rule="nonzero"/>
	<path id="Vector" d="M6.84778 10.6518C6.6261 10.6518 6.40448 10.5701 6.22943 10.3951L5.35443 9.52008C5.01611 9.18176 5.01611 8.62177 5.35443 8.28339C5.69281 7.94507 6.25281 7.94507 6.59113 8.28339L6.84778 8.5401L8.85443 6.53339C9.19281 6.19507 9.75281 6.19507 10.0911 6.53339C10.4295 6.87177 10.4295 7.43176 10.0911 7.77008L7.46613 10.3951C7.3028 10.5585 7.08112 10.6518 6.84778 10.6518Z" fill="#333845" fill-opacity="1.000000" fill-rule="nonzero"/>
	<path id="Vector" d="M19.0984 17.9318L12.9734 17.9318C12.4951 17.9318 12.0984 17.5351 12.0984 17.0568C12.0984 16.5784 12.4951 16.1818 12.9734 16.1818L19.0984 16.1818C19.5767 16.1818 19.9734 16.5784 19.9734 17.0568C19.9734 17.5351 19.5884 17.9318 19.0984 17.9318Z" fill="#333845" fill-opacity="1.000000" fill-rule="nonzero"/>
	<path id="Vector" d="M6.84778 18.8184C6.6261 18.8184 6.40448 18.7367 6.22943 18.5617L5.35443 17.6867C5.01611 17.3484 5.01611 16.7884 5.35443 16.45C5.69281 16.1117 6.25281 16.1117 6.59113 16.45L6.84778 16.7067L8.85443 14.7C9.19281 14.3617 9.75281 14.3617 10.0911 14.7C10.4295 15.0384 10.4295 15.5984 10.0911 15.9367L7.46613 18.5617C7.3028 18.725 7.08112 18.8184 6.84778 18.8184Z" fill="#333845" fill-opacity="1.000000" fill-rule="nonzero"/>
	<path id="Vector" d="M16.0417 25.0833L9.04169 25.0833C2.70667 25.0833 0 22.3766 0 16.0417L0 9.04169C0 2.70667 2.70667 0 9.04169 0L16.0417 0C22.3766 0 25.0833 2.70667 25.0833 9.04169L25.0833 16.0417C25.0833 22.3766 22.3766 25.0833 16.0417 25.0833ZM9.04169 1.75C3.66333 1.75 1.75 3.66333 1.75 9.04169L1.75 16.0417C1.75 21.42 3.66333 23.3333 9.04169 23.3333L16.0417 23.3333C21.42 23.3333 23.3333 21.42 23.3333 16.0417L23.3333 9.04169C23.3333 3.66333 21.42 1.75 16.0417 1.75L9.04169 1.75Z" fill="#333845" fill-opacity="1.000000" fill-rule="nonzero"/>
</svg>
