<svg width="21.562500" height="21.145813" viewBox="0 0 21.5625 21.1458" fill="none" xmlns="http://www.w3.org/2000/svg" xmlns:xlink="http://www.w3.org/1999/xlink">
	<desc>
			Created with Pixso.
	</desc>
	<defs/>
	<path id="Vector" d="M19.3696 21.1458L2.19293 21.1458C1.61157 21.1451 1.0542 20.9146 0.643127 20.5051C0.232056 20.0955 0.000732422 19.5403 0 18.9611L0 8.29651C0.000305176 7.94873 0.0837402 7.60608 0.24353 7.29688C0.403259 6.98767 0.634644 6.72083 0.918579 6.51849L9.5069 0.406738C9.87878 0.142212 10.3243 0 10.7812 0C11.2382 0 11.6837 0.142212 12.0556 0.406738L20.6439 6.51849C20.9279 6.72083 21.1592 6.98767 21.319 7.29688C21.4788 7.60608 21.5622 7.94873 21.5625 8.29651L21.5625 18.9611C21.5618 19.5403 21.3304 20.0955 20.9194 20.5051C20.5083 20.9146 19.9509 21.1451 19.3696 21.1458ZM10.7812 1.43219C10.6238 1.43213 10.4703 1.48096 10.3421 1.57184L1.75372 7.68353C1.65601 7.75323 1.57629 7.84509 1.5213 7.95154C1.46631 8.05804 1.43756 8.17603 1.4375 8.29578L1.4375 18.9611C1.43768 19.1606 1.51733 19.3519 1.65894 19.493C1.8006 19.6341 1.99261 19.7134 2.19293 19.7137L19.371 19.7137C19.571 19.7131 19.7628 19.6335 19.9041 19.4925C20.0453 19.3514 20.1248 19.1603 20.125 18.9611L20.125 8.29651C20.1249 8.17676 20.0962 8.05878 20.0412 7.95227C19.9862 7.84583 19.9065 7.75391 19.8088 7.68427L11.2204 1.57251C11.0923 1.48114 10.9388 1.43207 10.7812 1.43219Z" fill="#333845" fill-opacity="1.000000" fill-rule="nonzero"/>
	<path id="Vector" d="M14.375 17.5654L7.1875 17.5654C6.99689 17.5654 6.81409 17.4899 6.67926 17.3557C6.54449 17.2214 6.46875 17.0392 6.46875 16.8493L6.46875 14.701C6.46875 14.5112 6.54449 14.329 6.67926 14.1947C6.81409 14.0604 6.99689 13.985 7.1875 13.985C7.37811 13.985 7.56091 14.0604 7.69574 14.1947C7.83051 14.329 7.90625 14.5112 7.90625 14.701L7.90625 16.1332L13.6562 16.1332L13.6562 14.701C13.6562 14.5112 13.732 14.329 13.8668 14.1947C14.0016 14.0604 14.1844 13.985 14.375 13.985C14.5656 13.985 14.7484 14.0604 14.8832 14.1947C15.018 14.329 15.0938 14.5112 15.0938 14.701L15.0938 16.8493C15.0938 17.0392 15.018 17.2214 14.8832 17.3557C14.7484 17.4899 14.5656 17.5654 14.375 17.5654Z" fill="#333845" fill-opacity="1.000000" fill-rule="nonzero"/>
</svg>
