<svg width="23.437500" height="23.350342" viewBox="0 0 23.4375 23.3503" fill="none" xmlns="http://www.w3.org/2000/svg" xmlns:xlink="http://www.w3.org/1999/xlink">
	<desc>
			Created with Pixso.
	</desc>
	<defs/>
	<path id="Vector" d="M0 0L0 23.3503L23.4375 23.3503L23.4375 0L0 0ZM12.6165 1.5567L10.6633 3.1134L1.5625 3.1134L1.5625 1.5567L12.6165 1.5567ZM21.875 21.7937L1.5625 21.7937L1.5625 4.67004L11.2117 4.67004L15.1179 1.5567L21.875 1.5567L21.875 21.7937Z" fill="#333845" fill-opacity="1.000000" fill-rule="nonzero"/>
	<path id="Vector" d="M15.625 9.34021L15.625 18.6804L14.0625 18.6804L14.0625 6.22681L9.375 6.22681L9.375 18.6804L7.8125 18.6804L7.8125 13.2319L3.125 13.2319L3.125 18.6804L2.34375 18.6804L2.34375 20.2371L21.0938 20.2371L21.0938 18.6804L20.3125 18.6804L20.3125 9.34021L15.625 9.34021ZM4.6875 18.6804L4.6875 14.7886L6.25 14.7886L6.25 18.6804L4.6875 18.6804ZM10.9375 18.6804L10.9375 7.78351L12.5 7.78351L12.5 18.6804L10.9375 18.6804ZM17.1875 18.6804L17.1875 10.8969L18.75 10.8969L18.75 18.6804L17.1875 18.6804Z" fill="#333845" fill-opacity="1.000000" fill-rule="nonzero"/>
</svg>
