<svg width="18.537449" height="21.990051" viewBox="0 0 18.5374 21.9901" fill="none" xmlns="http://www.w3.org/2000/svg" xmlns:xlink="http://www.w3.org/1999/xlink">
	<desc>
			Created with Pixso.
	</desc>
	<defs/>
	<path id="Vector" d="M9.26865 21.9901C9.07673 21.9901 8.88488 21.9171 8.7384 21.7711L2.7117 15.7668C-0.9039 12.1647 -0.9039 6.30408 2.7117 2.7019C6.32692 -0.900635 12.2104 -0.900635 15.8258 2.7019C19.4413 6.30408 19.4413 12.1647 15.8258 15.7668L9.79905 21.7711C9.65242 21.9171 9.46058 21.9901 9.26865 21.9901ZM9.26865 1.4939C7.2783 1.4939 5.28758 2.24878 3.7722 3.75854C0.741825 6.77802 0.741825 11.6907 3.7722 14.7102L9.26865 20.1862L14.7651 14.7102C17.7955 11.6907 17.7955 6.77802 14.7651 3.75854C13.2497 2.24878 11.259 1.4939 9.26865 1.4939Z" fill="#333845" fill-opacity="1.000000" fill-rule="nonzero"/>
	<path id="Vector" d="M9.26868 12.9174C7.20108 12.9174 5.51868 11.2413 5.51868 9.1814C5.51868 7.12146 7.20108 5.44531 9.26868 5.44531C11.3363 5.44531 13.0187 7.12146 13.0187 9.1814C13.0187 11.2413 11.3363 12.9174 9.26868 12.9174ZM9.26868 6.93976C8.02795 6.93976 7.01868 7.94525 7.01868 9.1814C7.01868 10.4175 8.02795 11.423 9.26868 11.423C10.5094 11.423 11.5187 10.4175 11.5187 9.1814C11.5187 7.94525 10.5094 6.93976 9.26868 6.93976Z" fill="#333845" fill-opacity="1.000000" fill-rule="nonzero"/>
</svg>
