<svg width="25.000000" height="24.907074" viewBox="0 0 25 24.9071" fill="none" xmlns="http://www.w3.org/2000/svg" xmlns:xlink="http://www.w3.org/1999/xlink">
	<desc>
			Created with Pixso.
	</desc>
	<defs>
		<clipPath id="clip49_3357">
			<rect id="clipboard 1" width="25.000000" height="24.907063" fill="white" fill-opacity="0"/>
		</clipPath>
	</defs>
	<rect id="clipboard 1" width="25.000000" height="24.907063" fill="#FFFFFF" fill-opacity="0"/>
	<g clip-path="url(#clip49_3357)">
		<path id="Vector" d="M20.0867 2.72418L17.0602 2.72418C16.8932 2.16376 16.5495 1.67184 16.0799 1.32135C15.6103 0.970856 15.0399 0.780426 14.4531 0.77832L10.5469 0.77832C9.96012 0.780426 9.38967 0.970856 8.92008 1.32135C8.45049 1.67184 8.10676 2.16376 7.93984 2.72418L4.91328 2.72418C4.43919 2.72479 3.98469 2.91272 3.64946 3.2467C3.31423 3.58069 3.12562 4.03348 3.125 4.50583L3.125 22.347C3.12562 22.8194 3.31423 23.2722 3.64946 23.6062C3.98469 23.9402 4.43919 24.1281 4.91328 24.1287L20.0867 24.1287C20.5608 24.1281 21.0153 23.9402 21.3505 23.6062C21.6858 23.2722 21.8744 22.8194 21.875 22.347L21.875 4.50583C21.8744 4.03348 21.6858 3.58069 21.3505 3.2467C21.0153 2.91272 20.5608 2.72479 20.0867 2.72418ZM10.5469 2.33502L14.4531 2.33502C14.7639 2.33502 15.062 2.45801 15.2818 2.67697C15.5015 2.89594 15.625 3.19287 15.625 3.50253C15.625 3.81216 15.5015 4.10913 15.2818 4.32809C15.062 4.54706 14.7639 4.67004 14.4531 4.67004L10.5469 4.67004C10.2361 4.67004 9.938 4.54706 9.71823 4.32809C9.49846 4.10913 9.375 3.81216 9.375 3.50253C9.375 3.19287 9.49846 2.89594 9.71823 2.67697C9.938 2.45801 10.2361 2.33502 10.5469 2.33502ZM20.3125 22.347C20.3123 22.4066 20.2884 22.4637 20.2461 22.5059C20.2038 22.548 20.1465 22.5718 20.0867 22.572L4.91328 22.572C4.85346 22.5718 4.79615 22.548 4.75386 22.5059C4.71156 22.4637 4.68771 22.4066 4.6875 22.347L4.6875 4.50583C4.68771 4.44623 4.71156 4.38913 4.75386 4.34698C4.79615 4.30484 4.85346 4.28107 4.91328 4.28088L7.93984 4.28088C8.10676 4.84131 8.45049 5.33322 8.92008 5.68372C9.38967 6.03421 9.96012 6.22464 10.5469 6.22675L14.4531 6.22675C15.0399 6.22464 15.6103 6.03421 16.0799 5.68372C16.5495 5.33322 16.8932 4.84131 17.0602 4.28088L20.0867 4.28088C20.1465 4.28107 20.2038 4.30484 20.2461 4.34698C20.2884 4.38913 20.3123 4.44623 20.3125 4.50583L20.3125 22.347Z" fill="#333845" fill-opacity="1.000000" fill-rule="nonzero"/>
		<path id="Vector" d="M17.1875 17.1236L7.8125 17.1236C7.6053 17.1236 7.40659 17.2056 7.26007 17.3516C7.11356 17.4975 7.03125 17.6955 7.03125 17.9019C7.03125 18.1084 7.11356 18.3063 7.26007 18.4523C7.40659 18.5983 7.6053 18.6803 7.8125 18.6803L17.1875 18.6803C17.3947 18.6803 17.5934 18.5983 17.7399 18.4523C17.8864 18.3063 17.9688 18.1084 17.9688 17.9019C17.9688 17.6955 17.8864 17.4975 17.7399 17.3516C17.5934 17.2056 17.3947 17.1236 17.1875 17.1236Z" fill="#333845" fill-opacity="1.000000" fill-rule="nonzero"/>
		<path id="Vector" d="M17.1875 13.2319L7.8125 13.2319C7.6053 13.2319 7.40659 13.3139 7.26007 13.4598C7.11356 13.6058 7.03125 13.8038 7.03125 14.0102C7.03125 14.2166 7.11356 14.4146 7.26007 14.5606C7.40659 14.7066 7.6053 14.7886 7.8125 14.7886L17.1875 14.7886C17.3947 14.7886 17.5934 14.7066 17.7399 14.5606C17.8864 14.4146 17.9688 14.2166 17.9688 14.0102C17.9688 13.8038 17.8864 13.6058 17.7399 13.4598C17.5934 13.3139 17.3947 13.2319 17.1875 13.2319Z" fill="#333845" fill-opacity="1.000000" fill-rule="nonzero"/>
		<path id="Vector" d="M17.1875 9.34015L7.8125 9.34015C7.6053 9.34015 7.40659 9.42215 7.26007 9.56812C7.11356 9.71408 7.03125 9.91208 7.03125 10.1185C7.03125 10.3249 7.11356 10.5229 7.26007 10.6689C7.40659 10.8148 7.6053 10.8969 7.8125 10.8969L17.1875 10.8969C17.3947 10.8969 17.5934 10.8148 17.7399 10.6689C17.8864 10.5229 17.9688 10.3249 17.9688 10.1185C17.9688 9.91208 17.8864 9.71408 17.7399 9.56812C17.5934 9.42215 17.3947 9.34015 17.1875 9.34015Z" fill="#333845" fill-opacity="1.000000" fill-rule="nonzero"/>
	</g>
</svg>
