<svg width="116.982300" height="20.794434" viewBox="0 0 116.982 20.7944" fill="none" xmlns="http://www.w3.org/2000/svg" xmlns:xlink="http://www.w3.org/1999/xlink">
	<desc>
			Created with Pixso.
	</desc>
	<defs/>
	<path id="Vector" d="M115.338 14.6113C115.295 14.6113 115.266 14.5859 115.249 14.5356L112.662 6.06787C112.645 6.04248 112.645 6.01709 112.662 5.99219C112.687 5.9668 112.721 5.9541 112.763 5.9541L114.252 5.9541C114.303 5.9541 114.336 5.97949 114.353 6.02979L116.978 14.4849C116.995 14.5688 116.961 14.6113 116.877 14.6113L115.338 14.6113ZM111.867 13.0967C111.8 13.3325 111.724 13.5723 111.64 13.8159C111.564 14.0601 111.493 14.2998 111.425 14.5356C111.409 14.5859 111.375 14.6113 111.324 14.6113L109.798 14.6113C109.755 14.6113 109.722 14.5986 109.697 14.5732C109.68 14.5479 109.68 14.5186 109.697 14.4849L112.031 6.91309C112.048 6.86279 112.082 6.8374 112.132 6.8374C112.183 6.8374 112.216 6.86279 112.233 6.91309L113.003 9.36133L112.334 11.4438L113.546 11.4438C113.596 11.4438 113.63 11.4688 113.647 11.5195L114.088 12.9707C114.105 13.0044 114.101 13.0337 114.076 13.0591C114.059 13.084 114.029 13.0967 113.987 13.0967L111.867 13.0967Z" fill="#FFFFFF" fill-opacity="1.000000" fill-rule="nonzero"/>
	<path id="Vector" d="M107.121 14.6113C107.062 14.6113 107.032 14.5776 107.032 14.5103L107.032 10.5352L108.509 8.44043C108.543 8.39795 108.58 8.38574 108.622 8.40234C108.673 8.41943 108.698 8.45264 108.698 8.50342L108.698 14.5103C108.698 14.5776 108.665 14.6113 108.597 14.6113L107.121 14.6113ZM102.136 12.2642C102.102 12.3062 102.065 12.3188 102.022 12.3018C101.98 12.2852 101.959 12.2515 101.959 12.2007L101.959 6.05518C101.959 5.99609 101.993 5.9668 102.06 5.9668L103.512 5.9668C103.579 5.9668 103.613 5.99609 103.613 6.05518L103.613 10.1562L102.136 12.2642ZM102.06 14.6113C101.993 14.6113 101.959 14.5776 101.959 14.5103L101.959 13.627L107.272 6.00488C107.281 5.98779 107.293 5.97949 107.31 5.97949C107.327 5.97119 107.344 5.9668 107.361 5.9668L108.597 5.9668C108.665 5.9668 108.698 5.99609 108.698 6.05518L108.698 7.07715L103.436 14.5732C103.419 14.5986 103.39 14.6113 103.348 14.6113L102.06 14.6113Z" fill="#FFFFFF" fill-opacity="1.000000" fill-rule="nonzero"/>
	<path id="Vector" d="M93.391 13.0591C93.391 12.9917 93.4247 12.958 93.4919 12.958L94.1356 12.958L95.9906 6.91309C96.0074 6.86279 96.0411 6.8374 96.0916 6.8374C96.1421 6.8374 96.1757 6.86279 96.1925 6.91309L96.9749 9.36133L95.877 12.958L101.013 12.958C101.081 12.958 101.114 12.9917 101.114 13.0591L101.114 14.4976C101.114 14.5649 101.081 14.5986 101.013 14.5986L93.4919 14.5986C93.4247 14.5986 93.391 14.5649 93.391 14.4976L93.391 13.0591ZM98.6407 12.3901C98.5902 12.3901 98.5566 12.3647 98.5398 12.3145L96.6216 6.06787C96.6048 6.04248 96.6048 6.01709 96.6216 5.99219C96.6469 5.9668 96.6805 5.9541 96.7226 5.9541L98.2243 5.9541C98.2747 5.9541 98.3084 5.97949 98.3252 6.02979L100.269 12.2637C100.285 12.2974 100.281 12.3271 100.256 12.3521C100.239 12.3774 100.21 12.3901 100.168 12.3901L98.6407 12.3901Z" fill="#FFFFFF" fill-opacity="1.000000" fill-rule="nonzero"/>
	<path id="Vector" d="M87.0635 14.5986C86.9962 14.5986 86.9625 14.5649 86.9625 14.4976L86.9625 6.05518C86.9625 5.99609 86.9962 5.9668 87.0635 5.9668L88.5652 5.9668C88.6325 5.9668 88.6662 5.99609 88.6662 6.05518L88.6662 14.4976C88.6662 14.5649 88.6325 14.5986 88.5652 14.5986L87.0635 14.5986ZM89.4107 14.5986C89.3434 14.5986 89.3098 14.5649 89.3098 14.4976L89.3098 13.0464C89.3098 12.979 89.3434 12.9453 89.4107 12.9453L92.6918 12.9453C92.7591 12.9453 92.7928 12.979 92.7928 13.0464L92.7928 14.4976C92.7928 14.5649 92.7591 14.5986 92.6918 14.5986L89.4107 14.5986ZM89.4107 7.62012C89.3434 7.62012 89.3098 7.58643 89.3098 7.51904L89.3098 6.05518C89.3098 5.99609 89.3434 5.9668 89.4107 5.9668L92.6918 5.9668C92.7591 5.9668 92.7928 5.99609 92.7928 6.05518L92.7928 7.51904C92.7928 7.58643 92.7591 7.62012 92.6918 7.62012L89.4107 7.62012ZM91.8715 9.4751C91.9388 9.4751 91.9725 9.50879 91.9725 9.57617L91.9725 11.0273C91.9725 11.0947 91.9388 11.1284 91.8715 11.1284L89.4107 11.1284C89.3434 11.1284 89.3098 11.0947 89.3098 11.0273L89.3098 9.57617C89.3098 9.50879 89.3434 9.4751 89.4107 9.4751L91.8715 9.4751Z" fill="#FFFFFF" fill-opacity="1.000000" fill-rule="nonzero"/>
	<path id="Vector" d="M83.7127 14.5986C83.6538 14.5986 83.6244 14.5649 83.6244 14.4976L83.6244 8.85645L83.271 9.34863C83.2542 9.37402 83.2289 9.38672 83.1953 9.38672C83.17 9.37842 83.149 9.36572 83.1322 9.34863L82.2362 8.17529C82.211 8.1333 82.211 8.09131 82.2362 8.04883L83.7632 6.00488C83.7884 5.97949 83.8137 5.9668 83.8389 5.9668L85.1639 5.9668C85.2313 5.9668 85.2649 5.99609 85.2649 6.05518L85.2649 14.4976C85.2649 14.5649 85.2313 14.5986 85.1639 14.5986L83.7127 14.5986ZM78.4125 14.5986C78.3452 14.5986 78.3115 14.5649 78.3115 14.4976L78.3115 8.09961C78.3115 8.04883 78.3326 8.01514 78.3746 7.99854C78.4167 7.98193 78.4546 7.99414 78.4882 8.03662L79.9647 9.97998L79.9647 14.4976C79.9647 14.5649 79.931 14.5986 79.8637 14.5986L78.4125 14.5986ZM81.8702 11.229C81.8534 11.2627 81.8282 11.2798 81.7945 11.2798C81.7609 11.2798 81.7356 11.2627 81.7188 11.229L78.3115 6.69873L78.3115 6.05518C78.3115 5.99609 78.3452 5.9668 78.4125 5.9668L79.7123 5.9668C79.7375 5.9668 79.7628 5.97949 79.788 6.00488L82.741 9.9165C82.7662 9.95898 82.7662 10.001 82.741 10.043L81.8702 11.229Z" fill="#FFFFFF" fill-opacity="1.000000" fill-rule="nonzero"/>
	<path id="Vector" d="M71.7897 10.1436C71.7897 10.1016 71.8065 10.0806 71.8401 10.0806L76.1308 10.0806C76.1729 10.0806 76.1939 10.1016 76.1939 10.1436L76.1939 11.5063C76.1939 11.54 76.1729 11.5571 76.1308 11.5571L71.8401 11.5571C71.8065 11.5571 71.7897 11.54 71.7897 11.5063L71.7897 10.1436Z" fill="#FFFFFF" fill-opacity="1.000000" fill-rule="nonzero"/>
	<path id="Vector" d="M66.0278 14.6489C65.6324 14.6489 65.2622 14.5688 64.9173 14.4092C64.5724 14.2407 64.2737 14.022 64.0213 13.7529C63.7689 13.4834 63.567 13.1807 63.4156 12.8442C63.2726 12.5078 63.201 12.167 63.201 11.8218L63.201 8.80615C63.201 8.46924 63.2726 8.13721 63.4156 7.80908C63.567 7.47266 63.7689 7.17383 64.0213 6.91309C64.2821 6.64355 64.585 6.4248 64.9299 6.25684C65.2749 6.08838 65.6408 6.00439 66.0278 6.00439L66.0909 6.00439C66.1582 6.00439 66.1919 6.03369 66.1919 6.09277L66.1919 7.48096C66.1919 7.54834 66.1582 7.58203 66.0909 7.58203L66.0278 7.58203C65.9016 7.58203 65.767 7.61963 65.624 7.69531C65.481 7.7627 65.3464 7.85547 65.2202 7.97314C65.1024 8.08252 65.0014 8.2085 64.9173 8.35156C64.8416 8.49463 64.8037 8.64209 64.8037 8.79346L64.8037 11.8472C64.8037 12.0239 64.8416 12.188 64.9173 12.3394C65.0014 12.4824 65.1024 12.6084 65.2202 12.7178C65.3464 12.8188 65.481 12.8989 65.624 12.958C65.767 13.0166 65.9016 13.0459 66.0278 13.0459L66.0909 13.0459C66.1582 13.0459 66.1919 13.0796 66.1919 13.147L66.1919 14.5479C66.1919 14.6152 66.1582 14.6489 66.0909 14.6489L66.0278 14.6489ZM69.7885 11.8218C69.7885 12.167 69.7127 12.5078 69.5613 12.8442C69.4183 13.1807 69.2206 13.4834 68.9682 13.7529C68.7158 14.022 68.4171 14.2407 68.0722 14.4092C67.7273 14.5688 67.3571 14.6489 66.9617 14.6489L66.9112 14.6489C66.8439 14.6489 66.8102 14.6152 66.8102 14.5479L66.8102 13.147C66.8102 13.0796 66.8439 13.0459 66.9112 13.0459L66.9617 13.0459C67.0879 13.0459 67.2225 13.021 67.3655 12.9702C67.5085 12.9116 67.6389 12.8315 67.7567 12.7305C67.8745 12.6211 67.9713 12.4951 68.047 12.3521C68.1311 12.2007 68.1732 12.0322 68.1732 11.8472L68.1732 11.7212C68.1732 11.6538 68.2068 11.6201 68.2741 11.6201L69.6875 11.6201C69.7548 11.6201 69.7885 11.6538 69.7885 11.7212L69.7885 11.8218ZM68.2741 8.99512C68.2068 8.99512 68.1732 8.96143 68.1732 8.89404L68.1732 8.79346C68.1732 8.625 68.1311 8.46924 68.047 8.32617C67.9713 8.1748 67.8745 8.04443 67.7567 7.93506C67.6389 7.82568 67.5085 7.7417 67.3655 7.68262C67.2225 7.61572 67.0879 7.58203 66.9617 7.58203L66.9112 7.58203C66.8439 7.58203 66.8102 7.54834 66.8102 7.48096L66.8102 6.09277C66.8102 6.03369 66.8439 6.00439 66.9112 6.00439L66.9617 6.00439C67.3571 6.00439 67.7273 6.08838 68.0722 6.25684C68.4171 6.4248 68.7158 6.64355 68.9682 6.91309C69.2206 7.17383 69.4183 7.47266 69.5613 7.80908C69.7127 8.13721 69.7885 8.46924 69.7885 8.80615L69.7885 8.89404C69.7885 8.96143 69.7548 8.99512 69.6875 8.99512L68.2741 8.99512Z" fill="#FFFFFF" fill-opacity="1.000000" fill-rule="nonzero"/>
	<path id="Vector" d="M59.9365 14.5986C59.8692 14.5986 59.8355 14.5649 59.8355 14.4976L59.8355 11.1406L58.8134 11.1406C58.7461 11.1406 58.7124 11.1069 58.7124 11.04L58.7124 9.57617C58.7124 9.50879 58.7461 9.4751 58.8134 9.4751L59.8355 9.4751L59.8355 6.05518C59.8355 5.99609 59.8692 5.9668 59.9365 5.9668L61.4509 5.9668C61.5182 5.9668 61.5518 5.99609 61.5518 6.05518L61.5518 14.4976C61.5518 14.5649 61.5182 14.5986 61.4509 14.5986L59.9365 14.5986ZM58.0815 11.04C58.0815 11.1069 58.0478 11.1406 57.9805 11.1406L56.8573 11.1406L56.8573 14.4976C56.8573 14.5649 56.8237 14.5986 56.7564 14.5986L55.3177 14.5986C55.2505 14.5986 55.2168 14.5649 55.2168 14.4976L55.2168 6.05518C55.2168 5.99609 55.2505 5.9668 55.3177 5.9668L56.7564 5.9668C56.8237 5.9668 56.8573 5.99609 56.8573 6.05518L56.8573 9.4751L57.9805 9.4751C58.0478 9.4751 58.0815 9.50879 58.0815 9.57617L58.0815 11.04Z" fill="#FFFFFF" fill-opacity="1.000000" fill-rule="nonzero"/>
	<path id="Vector" d="M52.363 14.6113C52.321 14.6113 52.2915 14.5859 52.2747 14.5356L49.6877 6.06787C49.6709 6.04248 49.6709 6.01709 49.6877 5.99219C49.7129 5.9668 49.7466 5.9541 49.7886 5.9541L51.2777 5.9541C51.3282 5.9541 51.3619 5.97949 51.3787 6.02979L54.0036 14.4849C54.0204 14.5688 53.9868 14.6113 53.9026 14.6113L52.363 14.6113ZM48.8927 13.0967C48.8253 13.3325 48.7496 13.5723 48.6655 13.8159C48.5898 14.0601 48.5183 14.2998 48.451 14.5356C48.4341 14.5859 48.4005 14.6113 48.35 14.6113L46.8231 14.6113C46.781 14.6113 46.7473 14.5986 46.7221 14.5732C46.7053 14.5479 46.7053 14.5186 46.7221 14.4849L49.0567 6.91309C49.0735 6.86279 49.1072 6.8374 49.1577 6.8374C49.2082 6.8374 49.2418 6.86279 49.2586 6.91309L50.0284 9.36133L49.3596 11.4438L50.571 11.4438C50.6216 11.4438 50.6552 11.4688 50.672 11.5195L51.1137 12.9707C51.1305 13.0044 51.1263 13.0337 51.1011 13.0591C51.0843 13.084 51.0548 13.0967 51.0128 13.0967L48.8927 13.0967Z" fill="#FFFFFF" fill-opacity="1.000000" fill-rule="nonzero"/>
	<path id="Vector" d="M45.6485 8.41504C45.6485 8.76807 45.5643 9.08789 45.3961 9.37402C45.2278 9.65186 45.0469 9.86621 44.8534 10.0176C45.19 10.2363 45.4339 10.5142 45.5854 10.8506C45.7368 11.187 45.8125 11.5444 45.8125 11.9233C45.8125 12.3354 45.7494 12.7056 45.6232 13.0337C45.497 13.3618 45.3204 13.6436 45.0932 13.8794C44.8661 14.1064 44.5884 14.2832 44.2603 14.4092C43.9406 14.5356 43.5789 14.5986 43.175 14.5986L41.9509 14.5986C41.8836 14.5986 41.85 14.5649 41.85 14.4976L41.85 13.1348C41.85 13.0674 41.8836 13.0337 41.9509 13.0337L43.276 13.0337C43.5452 13.0337 43.7682 12.9287 43.9448 12.7183C44.1299 12.5078 44.2225 12.2681 44.2225 11.999L44.2225 11.9355C44.2225 11.8096 44.1972 11.6836 44.1467 11.5571C44.1047 11.4312 44.0416 11.3174 43.9575 11.2163C43.8733 11.1157 43.7724 11.0356 43.6546 10.9766C43.5368 10.918 43.4106 10.8882 43.276 10.8882L41.9509 10.8882C41.8836 10.8882 41.85 10.8545 41.85 10.7876L41.85 9.38672C41.85 9.32764 41.8836 9.29834 41.9509 9.29834L43.1498 9.29834C43.4442 9.29834 43.6672 9.21826 43.8186 9.05859C43.9785 8.89844 44.0584 8.70117 44.0584 8.46533L44.0584 8.38965C44.0584 8.1709 43.9869 7.98145 43.8439 7.82178C43.7009 7.66211 43.4695 7.58203 43.1498 7.58203L41.9509 7.58203C41.8836 7.58203 41.85 7.54834 41.85 7.48096L41.85 6.04248C41.85 5.9834 41.8836 5.9541 41.9509 5.9541L43.0362 5.9541C43.8439 5.9541 44.4791 6.16455 44.9418 6.58496C45.4129 7.00586 45.6485 7.61572 45.6485 8.41504ZM41.219 14.4976C41.219 14.5649 41.1854 14.5986 41.118 14.5986L39.6416 14.5986C39.5827 14.5986 39.5532 14.5649 39.5532 14.4976L39.5532 6.04248C39.5532 5.9834 39.5827 5.9541 39.6416 5.9541L41.118 5.9541C41.1854 5.9541 41.219 5.9834 41.219 6.04248L41.219 14.4976Z" fill="#FFFFFF" fill-opacity="1.000000" fill-rule="nonzero"/>
	<path id="Vector" d="M30.9218 13.0591C30.9218 12.9917 30.9554 12.958 31.0227 12.958L31.6663 12.958L33.5214 6.91309C33.5382 6.86279 33.5719 6.8374 33.6223 6.8374C33.6728 6.8374 33.7065 6.86279 33.7233 6.91309L34.5057 9.36133L33.4078 12.958L38.544 12.958C38.6113 12.958 38.6449 12.9917 38.6449 13.0591L38.6449 14.4976C38.6449 14.5649 38.6113 14.5986 38.544 14.5986L31.0227 14.5986C30.9554 14.5986 30.9218 14.5649 30.9218 14.4976L30.9218 13.0591ZM36.1715 12.3901C36.121 12.3901 36.0874 12.3647 36.0705 12.3145L34.1524 6.06787C34.1355 6.04248 34.1355 6.01709 34.1524 5.99219C34.1776 5.9668 34.2112 5.9541 34.2533 5.9541L35.755 5.9541C35.8055 5.9541 35.8392 5.97949 35.856 6.02979L37.7994 12.2637C37.8163 12.2974 37.812 12.3271 37.7868 12.3521C37.77 12.3774 37.7405 12.3901 37.6985 12.3901L36.1715 12.3901Z" fill="#FFFFFF" fill-opacity="1.000000" fill-rule="nonzero"/>
	<path id="Vector" d="M28.7999 14.6113C28.7579 14.6113 28.7284 14.5859 28.7116 14.5356L26.1246 6.06787C26.1078 6.04248 26.1078 6.01709 26.1246 5.99219C26.1498 5.9668 26.1835 5.9541 26.2255 5.9541L27.7146 5.9541C27.7651 5.9541 27.7988 5.97949 27.8156 6.02979L30.4405 14.4849C30.4573 14.5688 30.4236 14.6113 30.3395 14.6113L28.7999 14.6113ZM25.3296 13.0967C25.2622 13.3325 25.1865 13.5723 25.1024 13.8159C25.0267 14.0601 24.9552 14.2998 24.8878 14.5356C24.871 14.5859 24.8374 14.6113 24.7869 14.6113L23.2599 14.6113C23.2179 14.6113 23.1842 14.5986 23.159 14.5732C23.1422 14.5479 23.1422 14.5186 23.159 14.4849L25.4936 6.91309C25.5104 6.86279 25.5441 6.8374 25.5945 6.8374C25.6451 6.8374 25.6787 6.86279 25.6955 6.91309L26.4653 9.36133L25.7965 11.4438L27.0079 11.4438C27.0584 11.4438 27.0921 11.4688 27.1089 11.5195L27.5506 12.9707C27.5674 13.0044 27.5632 13.0337 27.538 13.0591C27.5211 13.084 27.4917 13.0967 27.4496 13.0967L25.3296 13.0967Z" fill="#FFFFFF" fill-opacity="1.000000" fill-rule="nonzero"/>
	<path id="Ellipse 7" d="M11.9607 10.397C11.9607 11.5073 11.0606 12.4077 9.95035 12.4077C8.84003 12.4077 7.93994 11.5073 7.93994 10.397C7.93994 9.28662 8.84003 8.38672 9.95035 8.38672C11.0606 8.38672 11.9607 9.28662 11.9607 10.397Z" fill="#FFFFFF" fill-opacity="1.000000" fill-rule="nonzero"/>
	<path id="Rectangle 1" d="M9.36536 4.66016L10.5354 4.66016L10.5354 17.0757L9.36536 17.0757L9.36536 4.66016Z" fill="#FFFFFF" fill-opacity="1.000000" fill-rule="nonzero"/>
	<path id="Rectangle 2" d="M14.3385 6.63623L14.9536 7.63135L4.39224 14.1582L3.77713 13.1631L14.3385 6.63623Z" fill="#FFFFFF" fill-opacity="1.000000" fill-rule="nonzero"/>
	<path id="Rectangle 3" d="M4.38892 7.63135L5.00409 6.63623L15.565 13.1636L14.9498 14.1592L4.38892 7.63135Z" fill="#FFFFFF" fill-opacity="1.000000" fill-rule="nonzero"/>
	<path id="Ellipse 1" d="M12.798 2.84766C12.798 4.42041 11.523 5.69531 9.95026 5.69531C8.3775 5.69531 7.10254 4.42041 7.10254 2.84766C7.10254 1.2749 8.3775 0 9.95026 0C11.523 0 12.798 1.2749 12.798 2.84766Z" fill="#DC7C44" fill-opacity="1.000000" fill-rule="nonzero"/>
	<path id="Ellipse 2" d="M12.798 17.9468C12.798 19.5195 11.523 20.7944 9.95026 20.7944C8.3775 20.7944 7.10254 19.5195 7.10254 17.9468C7.10254 16.374 8.3775 15.0991 9.95026 15.0991C11.523 15.0991 12.798 16.374 12.798 17.9468Z" fill="#4C8EAA" fill-opacity="1.000000" fill-rule="nonzero"/>
	<path id="Ellipse 3" d="M5.69543 6.37646C5.69543 7.94922 4.42047 9.22412 2.84772 9.22412C1.27496 9.22412 0 7.94922 0 6.37646C0 4.80371 1.27496 3.52881 2.84772 3.52881C4.42047 3.52881 5.69543 4.80371 5.69543 6.37646Z" fill="#EDB444" fill-opacity="1.000000" fill-rule="nonzero"/>
	<path id="Ellipse 4" d="M19.4685 6.37646C19.4685 7.94922 18.1935 9.22412 16.6208 9.22412C15.048 9.22412 13.7731 7.94922 13.7731 6.37646C13.7731 4.80371 15.048 3.52881 16.6208 3.52881C18.1935 3.52881 19.4685 4.80371 19.4685 6.37646Z" fill="#BA557B" fill-opacity="1.000000" fill-rule="nonzero"/>
	<path id="Ellipse 5" d="M5.69543 13.7158C5.69543 15.2886 4.42047 16.5635 2.84772 16.5635C1.27496 16.5635 0 15.2886 0 13.7158C0 12.1431 1.27496 10.8682 2.84772 10.8682C4.42047 10.8682 5.69543 12.1431 5.69543 13.7158Z" fill="#D24A43" fill-opacity="1.000000" fill-rule="nonzero"/>
	<path id="Ellipse 6" d="M19.4685 13.7158C19.4685 15.2886 18.1935 16.5635 16.6208 16.5635C15.048 16.5635 13.7731 15.2886 13.7731 13.7158C13.7731 12.1431 15.048 10.8682 16.6208 10.8682C18.1935 10.8682 19.4685 12.1431 19.4685 13.7158Z" fill="#4C679B" fill-opacity="1.000000" fill-rule="nonzero"/>
</svg>
