<svg width="53.000000" height="34.482178" viewBox="0 0 53 34.4822" fill="none" xmlns="http://www.w3.org/2000/svg" xmlns:xlink="http://www.w3.org/1999/xlink">
	<desc>
			Created with Pixso.
	</desc>
	<defs/>
	<path id="Vector" d="M42.678 0.403198L38.8615 2.60669L35.0449 4.81024C33.0604 5.95587 33.0604 8.8205 35.0449 9.96649L35.3392 10.1364L31.3929 16.9719L30.963 17.7168L30.6024 18.3413L29.8883 19.5781C29.5519 20.1612 28.8062 20.3608 28.223 20.0244C27.6399 19.6876 27.4403 18.9424 27.7767 18.3592L29.2814 15.753C29.2821 15.7515 29.2845 15.753 29.286 15.7518L29.4482 15.4712C30.5712 13.5261 29.9047 11.0388 27.9596 9.91577C26.0145 8.79279 23.5272 9.45935 22.4042 11.4044L16.512 21.6101L16.1058 22.3133C15.787 22.8653 15.0811 23.0547 14.5291 22.7358C13.9772 22.417 13.7881 21.7111 14.1066 21.1591L15.1991 19.2667L16.045 17.8018C17.168 15.8567 16.5015 13.3694 14.5564 12.2464C12.6113 11.1234 10.124 11.7899 9.00098 13.735L0.545532 28.3805C-0.577515 30.3256 0.0889893 32.8129 2.03418 33.9359C3.97925 35.0589 6.46655 34.3923 7.58948 32.4473L9.40247 29.3074L10.6752 27.1031L10.5154 27.0108C9.95679 26.6884 9.95679 25.8819 10.5154 25.5595L11.5896 24.9394L12.6639 24.3192C13.2225 23.9969 13.9207 24.3999 13.9207 25.045L13.9207 26.2853L13.9207 27.5257C13.9207 28.1665 13.2318 28.5668 12.6752 28.2562L12.3879 28.7539L12.4082 28.7656C11.5729 30.6429 12.2729 32.8862 14.0922 33.9363C16.0372 35.0593 18.5245 34.3927 19.6475 32.4477L22.8583 26.8868L24.2643 24.4518L24.1852 24.4061C23.6266 24.0838 23.6266 23.2773 24.1852 22.9549L25.2594 22.3347L26.3337 21.7146C26.8923 21.3922 27.5905 21.7953 27.5905 22.4404L27.5905 23.6807L27.5905 24.9211C27.5905 25.5502 26.9266 25.9439 26.3759 25.664L24.8069 28.3813C23.6838 30.3264 24.3505 32.8137 26.2955 33.9367C28.2406 35.0597 30.7279 34.3931 31.851 32.4481L42.384 14.2043L42.6783 14.3743C44.6628 15.5199 47.1438 14.0878 47.1438 11.7962L47.1438 7.38837L47.1438 2.98132C47.1431 0.689697 44.6624 -0.742432 42.678 0.403198Z" fill="#FFD600" fill-opacity="1.000000" fill-rule="nonzero"/>
	<path id="Vector" d="M42.4351 21.7466C43.6696 19.6081 46.7563 19.6081 47.9908 21.7466L50.2782 25.7081L52.5656 29.6696C53.8 31.808 52.2568 34.4812 49.7878 34.4812L45.2135 34.4812L40.6393 34.4812C38.1699 34.4812 36.6267 31.8084 37.8616 29.6696L40.1484 25.7081L42.4351 21.7466Z" fill="#333845" fill-opacity="1.000000" fill-rule="nonzero"/>
</svg>
