<svg width="17.739441" height="10.121094" viewBox="0 0 17.7394 10.1211" fill="none" xmlns="http://www.w3.org/2000/svg" xmlns:xlink="http://www.w3.org/1999/xlink">
	<desc>
			Created with Pixso.
	</desc>
	<defs/>
	<path id="Vector" d="M17.6454 9.14062C17.6239 9.09424 17.6039 9.05566 17.5852 9.0249C17.2775 8.4707 16.6893 7.79053 15.8211 6.98389L15.8028 6.96533L15.7936 6.95605L15.7843 6.94678L15.775 6.94678C15.381 6.57129 15.1315 6.31885 15.027 6.18945C14.8358 5.94287 14.7929 5.69385 14.8974 5.44092C14.9713 5.25049 15.2486 4.84717 15.7287 4.23145C15.9813 3.90479 16.1813 3.64355 16.329 3.44629C17.3943 2.02979 17.8562 1.125 17.7145 0.730957L17.6595 0.638672C17.6225 0.583496 17.527 0.532715 17.3733 0.486328C17.2192 0.439941 17.0222 0.432617 16.782 0.463379L14.122 0.481445C14.0789 0.466309 14.0174 0.467773 13.9373 0.486328C13.8572 0.504883 13.8171 0.51416 13.8171 0.51416L13.7708 0.537109L13.7341 0.564941C13.7033 0.583496 13.6694 0.615723 13.6324 0.662109C13.5957 0.708008 13.5649 0.762207 13.5403 0.82373C13.2507 1.56885 12.9215 2.26123 12.5519 2.90186C12.3241 3.28369 12.1149 3.61426 11.9238 3.89453C11.7329 4.1748 11.5728 4.38086 11.4436 4.51318C11.3142 4.64551 11.1974 4.75195 11.0926 4.83203C10.9879 4.91211 10.9079 4.9458 10.8525 4.93359C10.7971 4.92139 10.7448 4.90869 10.6954 4.89648C10.6092 4.84131 10.5399 4.76562 10.4877 4.67041C10.4352 4.57471 10.3999 4.45459 10.3814 4.31006C10.363 4.16504 10.3522 4.04053 10.3491 3.93604C10.3462 3.83154 10.3475 3.68359 10.3538 3.49268C10.3602 3.30176 10.363 3.17236 10.363 3.10449C10.363 2.87061 10.3676 2.6167 10.3767 2.34277C10.3861 2.06885 10.3936 1.85156 10.3999 1.69141C10.4062 1.53174 10.4091 1.3623 10.4091 1.18359C10.4091 1.00488 10.3982 0.864746 10.3767 0.763184C10.3555 0.661621 10.3229 0.563477 10.28 0.467773C10.2368 0.37207 10.1736 0.29834 10.0907 0.246094C10.0076 0.193848 9.90424 0.152344 9.78128 0.121094C9.4549 0.0473633 9.03931 0.00732422 8.5343 0.00146484C7.38907 -0.0107422 6.6532 0.0629883 6.32684 0.223145C6.19754 0.290527 6.08054 0.383301 5.97592 0.5C5.86505 0.635742 5.84958 0.709473 5.92963 0.72168C6.29913 0.776855 6.5607 0.909668 6.71466 1.11865L6.77014 1.22949C6.81329 1.30957 6.85638 1.45166 6.89951 1.65479C6.94257 1.85791 6.97037 2.08252 6.98257 2.32861C7.01331 2.77832 7.01331 3.16309 6.98257 3.4834C6.95175 3.80371 6.92264 4.05273 6.89487 4.23145C6.86707 4.41016 6.82553 4.55469 6.77014 4.66553C6.71466 4.77637 6.67776 4.84424 6.65924 4.86865C6.64078 4.89307 6.62537 4.90869 6.61316 4.91455C6.53311 4.94531 6.44989 4.96094 6.36374 4.96094C6.27747 4.96094 6.17282 4.91797 6.04971 4.83154C5.92661 4.74561 5.79886 4.62695 5.66647 4.47607C5.53406 4.3252 5.38474 4.11426 5.21841 3.84326C5.05225 3.57227 4.87979 3.25244 4.70123 2.88281L4.5535 2.61475C4.46112 2.44238 4.33496 2.19141 4.17487 1.8623C4.01468 1.53271 3.87308 1.21387 3.74997 0.90625C3.70078 0.776855 3.62686 0.678223 3.52835 0.61084L3.48212 0.583008C3.45139 0.558105 3.40207 0.532227 3.33438 0.504395C3.2666 0.476562 3.19589 0.456543 3.12195 0.444336L0.591217 0.462891C0.332611 0.462891 0.157166 0.521484 0.0647583 0.638184L0.0278015 0.693848C0.00930786 0.724609 0 0.773926 0 0.841797C0 0.90918 0.0184631 0.992676 0.0554504 1.09082C0.424896 1.95898 0.82663 2.79639 1.26071 3.60303C1.69479 4.40967 2.07199 5.05957 2.39209 5.55176C2.71225 6.04443 3.0386 6.50928 3.37112 6.94629C3.70364 7.38379 3.92377 7.66406 4.03146 7.78711C4.13928 7.91016 4.22397 8.00244 4.28552 8.06396L4.51648 8.28564C4.66425 8.43359 4.88126 8.61035 5.1676 8.81689C5.45398 9.02295 5.77106 9.22607 6.11893 9.42676C6.46689 9.62646 6.8717 9.78955 7.33356 9.91602C7.79535 10.042 8.24481 10.0928 8.68204 10.0684L9.7442 10.0684C9.95963 10.0498 10.1228 9.98193 10.2338 9.86523L10.2705 9.81885C10.2952 9.78223 10.3184 9.7251 10.3397 9.64844C10.3613 9.57129 10.3721 9.48633 10.3721 9.39404C10.3658 9.12939 10.3859 8.89111 10.432 8.67871C10.478 8.46631 10.5305 8.30615 10.5892 8.19824C10.6478 8.09033 10.714 7.99951 10.7877 7.92578C10.8615 7.85205 10.9141 7.80713 10.9449 7.79199C10.9756 7.77637 11.0001 7.76611 11.0186 7.75977C11.1664 7.71045 11.3403 7.7583 11.5406 7.90283C11.7407 8.04736 11.9285 8.22607 12.104 8.43848C12.2795 8.65137 12.4904 8.88965 12.7367 9.1543C12.9831 9.41895 13.1985 9.61621 13.3832 9.74561L13.5678 9.85645C13.6911 9.93018 13.8512 9.99805 14.0483 10.0596C14.245 10.1211 14.4174 10.1367 14.5654 10.106L16.9297 10.0688C17.1636 10.0688 17.3456 10.0303 17.4747 9.95312C17.604 9.87646 17.6808 9.7915 17.7056 9.69922C17.7303 9.60693 17.7317 9.50244 17.7103 9.38525C17.6884 9.26855 17.6668 9.18652 17.6454 9.14062Z" fill="#EEEEEE" fill-opacity="1.000000" fill-rule="nonzero"/>
</svg>
